<svg width="373" height="424" viewBox="0 0 373 424" fill="none" xmlns="http://www.w3.org/2000/svg">
<path d="M166 0C157.389 21.5005 122.304 38.7085 102.875 48.125C101.927 48.5866 100.98 49.0483 100.003 49.5239C94.372 52.1679 89.1232 53.8855 83 55C83 55.66 83 56.32 83 57C83.6212 57.0198 84.2423 57.0396 84.8823 57.0601C96.4262 57.4418 107.929 57.9431 119.438 58.9375C173.675 63.3764 228.589 63.5502 282.883 60.1328C284.855 60.0091 286.828 59.891 288.8 59.7734C314.804 58.1816 342.928 55.9453 366.883 44.918C369 44 369 44 371 44C371.619 64.3375 372.181 84.6507 372 105C370.585 104.7 369.171 104.396 367.758 104.09C366.97 103.921 366.183 103.752 365.372 103.578C363.138 103.034 361.032 102.352 358.875 101.562C335.722 93.7664 309.988 93.716 285.812 93.6875C284.428 93.6823 284.428 93.6823 283.016 93.6769C264.306 93.6376 245.665 94.8239 227 96C227.013 97.0233 227.025 98.0466 227.038 99.101C227.158 108.893 227.275 118.684 227.391 128.476C227.451 133.506 227.511 138.536 227.573 143.566C227.857 166.712 228.09 189.852 228 213C222.305 212.348 217.327 211.379 211.938 209.438C210.846 209.048 210.846 209.048 209.733 208.651C202.114 205.829 194.938 202.221 188 198C187.121 197.497 186.243 196.994 185.337 196.476C181.818 192.748 182.335 189.41 182.432 184.458C182.431 183.009 182.431 183.009 182.43 181.53C182.434 178.337 182.473 175.146 182.512 171.953C182.521 169.739 182.528 167.525 182.533 165.311C182.552 159.485 182.601 153.659 182.657 147.833C182.708 141.887 182.731 135.942 182.756 129.996C182.809 118.33 182.895 106.665 183 95C178.329 94.4031 173.657 93.8154 168.982 93.2429C167.389 93.0477 165.796 92.8495 164.203 92.6504C157.146 91.8474 150.104 91.8383 143.008 91.832C141.654 91.8288 140.301 91.8254 138.947 91.8219C136.111 91.816 133.276 91.8141 130.44 91.8147C127.595 91.8148 124.751 91.808 121.907 91.7942C105.951 91.7178 90.1493 91.9501 74.2371 93.298C55.1466 94.9138 55.1466 94.9138 51.4219 91.9453C50.8702 91.0146 50.3184 90.0839 49.75 89.125C49.1145 88.117 48.479 87.1089 47.8242 86.0703C46.9212 84.5505 46.9212 84.5505 46 83C44.8705 81.3223 43.7252 79.6549 42.5625 78C41.994 77.1866 41.4255 76.3732 40.8398 75.5352C29.8698 60.4193 17.1822 47.7489 0 40C0 39.67 0 39.34 0 39C1.09127 38.9802 2.18254 38.9604 3.30688 38.9399C58.4741 37.9039 104.811 30.2439 154.377 4.82617C155.004 4.50629 155.63 4.18641 156.275 3.85684C157.985 2.98128 159.693 2.09995 161.4 1.21826C164 0 164 0 166 0Z" fill="currentColor"/>
<path d="M175 110C175 110.66 175 111.32 175 112C173.242 113.332 173.242 113.332 170.875 114.812C159.897 121.965 150.808 132.336 147.383 145.344C145.213 160.398 148.278 172.589 157 185C162.813 191.837 169.436 197.223 177 202C177.868 202.562 178.735 203.124 179.629 203.703C192.942 211.924 207.507 216.903 222.321 221.672C251.121 230.965 278.434 245.051 293 273C298.268 283.818 300.385 293.941 300.313 305.937C300.305 307.39 300.305 307.39 300.298 308.873C300.186 315.666 299.548 321.651 297 328C296.637 328.978 296.273 329.957 295.898 330.965C291.453 342.335 285.55 351.297 277 360C276.261 360.763 275.523 361.526 274.762 362.312C259.557 377.032 237.165 386.128 216 386.187C214.666 386.141 213.332 386.086 212 386C213.344 383.312 214.509 383.301 217.313 382.312C235.427 375.284 248.95 362.804 256.875 345.062C263.168 328.535 264.308 311.465 257.371 294.941C248.636 275.643 233.4 264.523 214 257C210.816 255.95 207.603 255.029 204.375 254.125C173.986 245.561 138.226 228.07 121.465 199.875C114.694 186.587 111.082 171.462 115.063 156.687C115.652 155.103 116.303 153.541 117 152C117.452 150.988 117.905 149.976 118.371 148.934C127.033 131.339 142.456 118.377 160.992 111.965C165.724 110.586 170.03 109.597 175 110Z" fill="currentColor"/>
<path d="M185 257C189.415 258.318 193.826 259.651 198.232 260.998C199.728 261.453 201.226 261.904 202.725 262.35C204.893 262.997 207.056 263.659 209.219 264.324C209.877 264.517 210.536 264.71 211.215 264.909C213.187 265.525 215.086 266.223 217 267C217.734 267.297 218.468 267.595 219.224 267.901C221.562 269.066 223.208 270.094 225 272C226.2 275.589 226.17 279.033 226.133 282.793C226.151 284.383 226.151 284.383 226.17 286.005C226.185 288.254 226.178 290.502 226.153 292.751C226.125 296.134 226.193 299.506 226.269 302.889C226.369 317.008 224.049 326.496 216.17 338.198C213.675 342.041 211.99 346.279 210.25 350.5C209.884 351.372 209.518 352.244 209.142 353.142C205.642 361.62 202.656 370.224 200 379C199.789 379.69 199.578 380.381 199.361 381.092C195.11 395.197 192.094 409.606 189 424C188.67 424 188.34 424 188 424C184.734 368.394 184.806 312.682 185 257Z" fill="currentColor"/>
<path d="M168 267C165.224 269.857 162.548 272.454 159.25 274.688C146.417 284.155 137.753 298.323 135 314C133.643 334.311 136.867 351.641 150.312 367.5C157.461 374.92 167.835 381.721 178 384C178 384.66 178 385.32 178 386C157.44 386.984 139.331 382.209 123.461 368.363C110.592 356.005 103.166 339.456 102.625 321.563C103.07 306.175 107.742 293.52 118.414 282.352C132.366 269.665 149.636 265.874 168 267Z" fill="currentColor"/>
<path d="M234 111C247.538 110.279 259.056 112.653 270 121C277.128 127.488 282.134 134.206 283.371 143.91C283.79 153.738 280.98 162.496 274.77 170.152C270.007 175.126 264.407 179.407 258 182C257.01 182 256.02 182 255 182C256.288 179.299 257.735 176.893 259.438 174.437C265.43 164.811 266.799 152.947 264.309 141.945C262.492 136.456 259.976 132.085 256.27 127.656C255 126 255 126 254 123C252.195 121.93 252.195 121.93 250 121C248.368 120.033 246.743 119.053 245.125 118.062C241.482 115.858 237.847 113.822 234 112C234 111.67 234 111.34 234 111Z" fill="currentColor"/>
</svg>
